<?xml version="1.0" ?><svg enable-background="new 0 0 32 32" height="32px" id="svg2" version="1.1" viewBox="0 0 32 32" width="32px" xml:space="preserve" xmlns="http://www.w3.org/2000/svg" xmlns:cc="http://creativecommons.org/ns#" xmlns:dc="http://purl.org/dc/elements/1.1/" xmlns:inkscape="http://www.inkscape.org/namespaces/inkscape" xmlns:rdf="http://www.w3.org/1999/02/22-rdf-syntax-ns#" xmlns:sodipodi="http://sodipodi.sourceforge.net/DTD/sodipodi-0.dtd" xmlns:svg="http://www.w3.org/2000/svg"><g id="background"><rect fill="none" height="32" width="32"/></g><g id="music"><path d="M8,0v16.35C7.373,16.127,6.702,16,6,16c-3.316,0-6,2.691-6,6c0,3.314,2.684,6,6,6c3.311,0,6-2.686,6-6V6l12,2v12.35   C23.373,20.127,22.703,20,22,20c-3.316,0-6,2.691-6,6c0,3.314,2.684,6,6,6c3.309,0,6-2.686,6-6V4L8,0z"/></g></svg>